<?xml version="1.0" standalone="no"?>
<!DOCTYPE svg PUBLIC "-//W3C//DTD SVG 20010904//EN"
 "http://www.w3.org/TR/2001/REC-SVG-20010904/DTD/svg10.dtd">
<svg version="1.0" xmlns="http://www.w3.org/2000/svg"
 width="700.000000pt" height="700.000000pt" viewBox="0 0 700.000000 700.000000"
 preserveAspectRatio="xMidYMid meet">
<metadata>
Created by potrace 1.14, written by Peter Selinger 2001-2017
</metadata>
<g transform="translate(0.000000,700.000000) scale(0.100000,-0.100000)"
fill="#000000" stroke="none">
<path d="M2968 5524 c-3 -2 -33 -6 -69 -9 -106 -8 -176 -19 -309 -51 -272 -64
-573 -181 -805 -314 -22 -13 -60 -35 -85 -49 -44 -25 -225 -142 -245 -158 -5
-4 -50 -37 -100 -73 -184 -131 -398 -329 -585 -540 -36 -40 -85 -96 -110 -124
-154 -173 -263 -265 -400 -335 -124 -64 -195 -104 -228 -128 -31 -24 -33 -28
-30 -81 3 -53 6 -59 51 -101 71 -68 123 -99 201 -122 39 -11 96 -28 126 -36
79 -23 175 -70 246 -119 86 -61 157 -101 227 -130 34 -14 71 -29 82 -34 11 -5
77 -28 148 -51 112 -37 147 -58 120 -71 -32 -14 -290 -358 -426 -569 -115
-178 -127 -197 -127 -203 0 -3 -15 -29 -33 -58 -41 -65 -115 -217 -156 -320
-63 -160 -103 -378 -69 -378 40 0 153 96 263 225 33 38 101 113 152 165 50 52
124 129 163 170 186 193 557 576 670 690 l125 128 100 -3 c296 -8 761 -24 860
-30 79 -5 533 -5 610 -1 28 2 106 6 175 10 69 4 141 9 160 11 19 2 69 7 110
10 41 3 86 8 100 10 14 2 43 6 65 9 22 3 60 8 85 11 25 3 56 7 70 9 14 3 43 7
65 11 22 3 51 8 65 11 14 2 39 7 55 10 17 3 50 10 75 15 25 6 52 12 60 14 201
44 411 128 640 258 73 41 330 171 390 197 166 70 281 99 379 95 88 -3 131 -28
162 -91 19 -40 21 -57 16 -126 -5 -73 -11 -92 -62 -193 -60 -120 -62 -130 -68
-297 -6 -147 -16 -165 -184 -324 -125 -118 -159 -153 -237 -238 -42 -46 -97
-167 -97 -212 -1 -68 8 -109 35 -165 57 -123 148 -173 306 -172 53 0 222 13
230 18 3 1 25 6 50 9 199 27 313 80 441 206 96 94 95 93 160 95 57 0 64 3 90
35 44 53 133 234 153 315 2 6 8 21 13 35 6 14 14 41 18 60 4 19 10 40 13 45 4
6 7 15 8 21 2 11 53 182 77 254 6 19 11 37 12 40 0 3 8 26 18 52 15 39 17 70
14 200 -2 84 -8 171 -14 193 -6 22 -13 56 -16 75 -12 85 -40 194 -58 227 -43
76 -135 204 -189 264 -8 9 -28 31 -43 50 -50 59 -190 200 -227 228 -19 14 -37
29 -40 32 -3 3 -18 12 -35 20 -16 8 -30 21 -30 29 0 8 48 47 107 86 137 91
175 129 241 239 49 82 60 93 113 120 63 32 84 60 84 112 0 42 -35 137 -71 191
-16 24 -29 47 -29 52 0 4 -3 10 -7 12 -5 2 -33 32 -63 68 -181 213 -349 315
-585 355 -77 13 -360 14 -395 2 -8 -3 -33 -8 -56 -11 -197 -24 -712 -164 -979
-266 -16 -6 -32 -12 -35 -12 -3 0 -13 -4 -22 -9 -10 -5 -18 -6 -18 -2 0 5 -17
17 -37 28 -21 11 -40 22 -43 26 -3 3 -57 39 -120 79 -63 41 -117 77 -120 80
-9 11 -195 88 -260 108 -111 34 -236 55 -395 68 -38 3 -83 8 -100 10 -37 7
-581 14 -587 8z m472 -38 c136 -7 161 -9 265 -26 95 -15 112 -18 170 -30 88
-18 99 -21 151 -36 28 -8 60 -16 70 -18 19 -4 123 -41 159 -56 11 -5 42 -18
68 -29 69 -29 183 -107 207 -141 l21 -29 -26 -23 c-24 -20 -26 -28 -20 -69 6
-43 5 -47 -17 -53 -70 -18 -110 11 -138 99 -16 50 -64 143 -87 170 -48 54
-164 78 -363 75 -196 -4 -188 -5 -232 30 -29 24 -51 33 -79 34 -36 1 -45 -5
-112 -75 -90 -94 -107 -100 -148 -49 -34 42 -46 47 -143 56 -36 3 -103 14
-148 24 -110 24 -196 19 -277 -13 -109 -45 -171 -47 -171 -5 0 53 72 104 188
133 100 25 124 27 297 31 94 3 181 6 195 7 14 1 30 2 35 1 6 -2 66 -5 135 -8z
m2770 -115 c30 -6 61 -18 69 -26 14 -13 10 -15 -29 -16 -122 -2 -256 -11 -263
-18 -5 -5 3 -26 18 -47 l26 -38 -40 -16 c-22 -8 -43 -18 -47 -22 -11 -12 16
-38 60 -58 65 -28 77 -31 91 -17 52 49 103 77 142 77 42 1 109 35 116 59 3 13
-3 31 -16 47 l-20 26 24 -7 c70 -22 122 -59 178 -127 64 -77 76 -111 14 -38
-47 54 -110 100 -129 93 -8 -3 -14 -16 -14 -28 0 -18 11 -29 50 -47 l49 -23
-1 -52 c-1 -42 4 -59 25 -87 34 -44 83 -80 92 -66 11 18 40 11 78 -21 21 -17
41 -29 44 -25 3 3 -6 24 -21 46 -14 22 -26 42 -26 45 0 11 119 -125 133 -151
32 -62 26 -147 -11 -158 -10 -3 -64 -5 -122 -5 -93 -1 -155 -5 -155 -10 0 -2
-11 -5 -25 -7 -59 -11 -172 -49 -274 -94 -233 -101 -268 -110 -309 -72 -22 20
-60 42 -72 42 -9 0 -2 -53 9 -68 15 -21 61 -41 105 -47 58 -7 134 22 245 92
90 57 154 89 229 113 48 15 235 21 243 8 9 -14 -49 -126 -93 -179 -68 -82
-196 -168 -273 -182 -102 -19 -161 -27 -266 -33 -69 -5 -87 -3 -122 15 -59 30
-75 27 -107 -21 -44 -68 -76 -97 -114 -105 -54 -10 -70 -7 -91 19 l-19 23 2
-44 2 -44 -60 -20 c-69 -24 -83 -35 -91 -76 -6 -30 -6 -30 27 -26 116 17 300
91 525 213 39 22 74 31 134 39 49 5 112 -7 117 -23 3 -10 -44 -63 -78 -89 -56
-42 -226 -118 -344 -154 -171 -51 -271 -65 -470 -64 -231 0 -354 25 -512 104
-57 28 -107 49 -112 47 -6 -1 9 -28 32 -59 51 -67 73 -107 64 -115 -3 -4 -46
3 -94 15 -48 11 -91 21 -95 21 -20 0 -4 -34 31 -69 35 -35 107 -64 159 -64 19
0 7 -56 -16 -79 -21 -21 -80 -34 -149 -34 -28 1 -49 -2 -47 -6 3 -4 25 -19 50
-34 24 -14 44 -29 45 -32 0 -4 3 -19 5 -33 8 -51 -53 -65 -153 -36 -74 22
-165 11 -215 -25 -44 -30 -23 -40 86 -42 53 0 96 -4 96 -7 0 -3 -12 -17 -27
-30 -75 -68 -230 -92 -393 -62 -76 14 -135 10 -154 -10 -10 -10 -16 -20 -13
-23 15 -16 532 -29 569 -15 30 11 38 1 38 -50 0 -62 -44 -127 -114 -167 -33
-20 -140 -54 -205 -67 -48 -9 -234 -31 -331 -40 -43 -3 -112 -12 -155 -19 -20
-4 -105 -14 -180 -21 -154 -15 -805 -28 -805 -15 1 3 7 16 15 30 23 39 19 43
-42 36 -171 -21 -219 -22 -407 -12 -161 8 -176 15 -102 50 50 23 89 27 305 31
249 3 286 12 330 74 l21 30 -28 -8 c-15 -5 -45 -17 -67 -28 -85 -43 -149 -56
-201 -41 -39 10 -43 27 -13 48 26 18 89 77 108 103 18 23 -3 23 -27 -1 -35
-35 -107 -80 -155 -96 -47 -16 -160 -20 -205 -8 l-22 7 27 40 c15 22 32 45 37
51 6 6 45 54 86 107 41 52 82 98 90 102 8 4 38 9 65 11 103 8 141 18 205 50
62 30 106 77 125 132 32 96 15 95 -94 -8 -105 -99 -124 -103 -94 -22 7 18 0
16 -74 -22 -37 -19 -69 -33 -72 -31 -12 13 42 64 121 113 124 77 167 117 195
180 37 85 26 212 -23 253 -16 13 -17 12 -9 -16 11 -38 14 -151 4 -166 -5 -8
-16 -3 -34 17 l-26 29 -19 -25 c-11 -14 -29 -50 -42 -80 -12 -30 -32 -72 -45
-92 -13 -21 -23 -42 -23 -47 0 -26 -117 -125 -225 -192 -129 -79 -227 -149
-315 -225 -66 -58 -319 -310 -375 -375 -132 -152 -172 -195 -280 -307 -66 -68
-187 -193 -270 -277 -278 -282 -431 -448 -490 -529 -16 -23 -38 -48 -49 -55
-11 -8 -49 -43 -85 -78 -36 -35 -68 -63 -73 -63 -9 0 -12 22 -9 55 1 11 14 31
30 45 90 81 167 148 192 165 34 24 36 42 7 90 -24 42 -20 48 47 65 110 28 115
30 115 53 0 33 -32 79 -84 121 -25 21 -48 46 -51 56 -7 24 10 67 32 78 26 14
78 19 77 7 -11 -72 -12 -98 -5 -117 11 -29 18 -13 24 60 4 47 10 59 45 95 33
33 44 39 54 29 9 -9 8 -21 -8 -54 -20 -42 -33 -138 -18 -138 12 0 77 52 112
89 19 20 45 60 58 88 33 70 27 109 -30 186 -21 28 -21 29 -2 43 11 8 24 14 29
14 10 0 58 -49 72 -74 17 -30 45 -7 87 71 41 76 54 146 27 151 -10 2 -22 -10
-33 -33 -14 -28 -23 -35 -45 -35 -26 0 -29 3 -26 33 6 69 47 130 95 142 18 4
40 -4 79 -30 l55 -35 23 22 c22 21 83 162 83 193 0 9 -11 28 -25 43 -50 53
-26 69 110 72 50 1 97 2 105 2 31 1 40 20 39 75 l-2 55 -32 -6 c-36 -7 -56 9
-75 58 -16 43 -24 119 -11 111 21 -12 99 -17 105 -6 12 19 -4 51 -34 66 -31
16 -33 35 -7 65 19 22 45 25 97 10 86 -24 182 -15 206 18 17 23 0 63 -47 110
-21 22 -39 45 -39 51 0 7 24 11 58 12 117 1 176 25 204 79 10 19 16 35 15 37
-2 1 -26 -4 -55 -11 -29 -8 -54 -11 -56 -7 -2 3 5 28 16 54 16 36 30 52 55 62
34 14 67 69 65 108 -1 16 5 17 56 11 31 -4 66 -8 77 -9 34 -4 55 24 55 70 0
51 13 63 71 68 85 7 168 -19 277 -85 18 -11 36 -17 40 -14 8 8 -38 52 -92 89
l-39 26 27 10 c14 6 38 13 51 15 14 3 73 30 132 62 60 31 131 68 158 82 65 33
106 72 162 155 47 71 77 93 133 99 29 3 35 0 40 -22 11 -46 -2 -81 -51 -133
-27 -29 -49 -54 -49 -58 0 -3 25 -2 55 1 30 3 55 4 55 1 0 -4 -9 -17 -20 -31
-11 -14 -20 -28 -20 -32 0 -4 25 -5 55 -2 76 9 74 1 -23 -89 -71 -65 -68 -137
10 -293 77 -153 213 -340 318 -437 70 -65 105 -86 151 -89 52 -5 48 23 -8 59
-27 17 -73 59 -103 94 -30 34 -60 67 -65 73 -6 6 -32 40 -58 76 -27 36 -54 72
-60 80 -7 8 -29 49 -50 91 -55 112 -52 138 28 248 21 29 24 43 22 103 -2 61 1
72 20 88 25 20 97 17 133 -5 17 -11 11 7 -16 42 -40 52 -55 96 -45 131 25 85
199 265 302 312 55 24 58 16 29 -70 -12 -34 -19 -65 -16 -67 3 -3 8 6 12 21 3
14 9 26 13 26 3 0 12 14 19 30 15 33 34 41 31 13 -1 -10 0 -54 1 -98 l2 -80
17 70 c22 92 47 131 96 155 51 25 65 25 60 2 -1 -10 -6 -45 -9 -77 l-7 -60 17
45 c16 45 53 90 74 90 11 0 11 -9 -5 -140 -15 -124 -15 -147 -2 -147 9 0 14
20 15 71 2 39 4 78 6 86 10 51 29 101 46 122 l19 23 1 -87 c0 -48 4 -89 8 -92
4 -2 8 3 8 12 0 9 4 40 8 67 4 28 8 56 8 64 2 20 70 88 75 74 2 -6 0 -29 -6
-49 -6 -21 -9 -40 -7 -42 2 -2 43 42 90 97 48 55 101 112 120 126 72 55 247
119 377 139 20 3 79 21 130 39 82 30 188 59 269 73 14 3 34 8 45 11 11 4 27 7
35 8 8 1 29 4 45 8 17 4 48 9 70 12 22 3 51 8 65 10 14 2 61 7 105 11 44 4 81
8 83 9 8 7 254 -4 302 -14z m-2364 -356 c64 -11 105 -71 76 -110 -29 -42 -106
-57 -152 -30 -53 30 -78 37 -150 38 -119 1 -229 -17 -410 -67 -77 -22 -324
-117 -455 -176 -11 -5 -36 -15 -55 -24 -19 -8 -55 -23 -80 -34 -163 -71 -306
-125 -320 -120 -39 13 133 119 338 208 218 94 732 264 867 286 17 3 37 7 45
10 8 3 33 8 55 11 22 3 60 8 85 12 49 7 106 5 156 -4z m-671 -348 c11 -3 23
-6 28 -6 4 -1 7 -9 7 -20 0 -36 -107 -123 -295 -238 -95 -59 -190 -95 -342
-129 -143 -32 -221 -65 -318 -136 -125 -92 -492 -441 -605 -576 -25 -30 -50
-59 -55 -65 -6 -7 -29 -34 -51 -62 -81 -103 -193 -225 -205 -225 -5 0 -6 18
-3 39 5 37 4 39 -28 49 -18 6 -50 13 -70 16 -21 4 -53 8 -70 11 -18 3 -53 7
-78 9 -25 3 -63 7 -85 10 -22 3 -60 8 -85 11 -124 16 -239 55 -259 88 -20 31
-22 86 -6 117 9 17 19 30 23 30 21 0 95 -26 159 -55 81 -38 130 -53 155 -47
19 4 37 47 32 77 -4 26 -7 94 -6 123 3 34 55 29 143 -15 41 -20 84 -36 97 -35
12 1 48 20 80 42 54 38 79 45 165 49 13 1 17 6 13 19 -3 9 -8 43 -11 74 l-6
57 51 -2 c42 -1 54 2 62 18 27 50 97 98 226 155 148 65 183 88 232 152 86 112
168 144 386 152 82 2 172 9 200 15 128 25 344 140 356 189 2 10 -15 14 -72 15
-84 3 -97 8 -111 44 -7 20 -6 30 6 43 14 16 34 18 168 15 84 -2 161 -5 172 -8z
m3202 -589 c8 -14 9 -19 11 -55 2 -28 28 -33 75 -15 39 15 67 5 67 -23 0 -7
20 -32 44 -56 76 -77 76 -83 20 -167 -51 -74 -2 -144 86 -123 3 1 5 15 6 32 1
16 6 35 13 42 18 18 34 -7 37 -60 1 -26 2 -51 3 -55 1 -5 18 -8 40 -8 36 0 38
-2 36 -29 -1 -16 -10 -39 -19 -52 -24 -35 -20 -75 10 -102 14 -12 29 -22 32
-23 32 -3 82 -17 78 -22 -3 -2 -1 -13 5 -23 5 -11 6 -19 1 -19 -11 0 3 -132
17 -156 26 -49 31 -85 15 -117 -9 -18 -25 -41 -35 -52 -14 -16 -19 -43 -24
-135 -3 -63 -8 -126 -10 -140 -11 -65 -18 -100 -35 -165 -76 -291 -162 -474
-220 -467 -76 8 -63 90 24 147 48 32 59 63 33 97 -24 31 -62 32 -91 3 -35 -35
-73 -54 -97 -48 -10 3 -33 31 -50 63 -32 61 -56 77 -147 100 -80 20 -126 80
-182 234 l-18 50 36 44 35 43 -41 41 c-25 23 -42 50 -43 64 -1 13 -2 48 -3 78
-1 43 -6 58 -24 74 -18 16 -24 33 -27 76 -2 31 -1 56 1 56 3 0 36 -18 73 -40
96 -57 105 -53 76 29 -28 81 0 190 49 192 99 3 139 48 161 179 10 60 35 138
48 152 20 20 67 119 67 141 0 30 -17 53 -49 66 -24 11 -41 9 -98 -7 -65 -18
-109 -20 -160 -7 -33 8 -103 73 -103 96 0 17 2 17 42 3 53 -18 127 -24 152
-11 15 7 17 17 13 48 -5 39 -5 39 28 39 19 0 37 -6 42 -12z m-1642 -739 c103
-48 151 -126 108 -176 -17 -19 -120 -82 -133 -81 -3 0 -30 -5 -61 -12 -75 -17
-87 -11 -53 25 53 57 62 125 29 222 -8 24 -15 48 -15 52 0 12 72 -5 125 -30z
m1427 -818 c22 -17 33 -42 53 -118 10 -37 34 -53 78 -53 65 0 101 -14 168 -66
71 -54 99 -95 92 -133 -3 -14 -6 -33 -7 -41 -4 -24 -33 -23 -56 2 -11 13 -28
31 -37 41 -9 9 -27 18 -40 18 -13 1 -33 2 -45 3 -48 3 -40 -44 13 -79 29 -20
59 -70 59 -98 0 -24 -46 -5 -94 38 -22 19 -40 35 -40 35 -1 1 -17 3 -36 6 -60
8 -128 -52 -161 -144 -5 -15 -13 -36 -18 -47 -5 -11 -14 -33 -19 -50 -10 -33
-67 -74 -83 -58 -5 5 -16 46 -24 91 -14 81 -28 121 -49 134 -20 13 -90 0 -104
-19 -15 -20 -9 -88 10 -110 6 -7 8 -13 5 -13 -3 0 10 -23 28 -52 19 -28 33
-54 30 -56 -2 -2 -25 -1 -50 2 -38 6 -54 16 -97 61 -42 44 -59 55 -94 61 -64
9 -126 8 -155 -4 -23 -9 -30 -7 -54 18 l-27 28 54 15 c71 21 177 48 207 54 14
2 28 6 32 8 4 3 -6 41 -22 86 -16 45 -29 89 -29 98 0 13 -13 20 -47 27 -49 9
-59 19 -43 44 6 10 27 15 62 16 29 1 56 2 60 3 4 0 12 27 18 59 25 120 55 172
95 164 31 -5 31 -11 0 -41 -33 -31 -41 -65 -21 -95 17 -26 25 -27 73 -7 25 10
34 21 39 48 5 29 2 39 -21 63 l-27 29 38 7 c22 3 76 14 121 23 116 24 137 24
165 2z"/>
<path d="M5610 5322 c-21 -2 -148 -29 -185 -38 -61 -16 -147 -44 -166 -55
-105 -60 -136 -90 -135 -128 1 -25 66 -55 120 -56 59 0 100 24 204 123 48 46
80 66 134 86 64 24 97 47 98 68 0 7 -10 7 -70 0z"/>
<path d="M5020 5164 c-103 -35 -193 -80 -224 -113 -24 -25 -26 -31 -15 -54 34
-75 166 -52 256 46 44 48 61 75 73 118 11 36 7 36 -90 3z"/>
<path d="M5422 5113 c-40 -8 -70 -61 -70 -123 1 -57 6 -74 41 -148 20 -42 97
-122 117 -122 10 0 8 -22 -5 -90 -30 -146 -29 -140 -4 -140 67 0 169 85 169
142 0 38 -23 60 -110 102 -65 31 -155 109 -158 136 -1 8 -5 30 -8 48 -6 32 -5
33 14 21 11 -7 27 -24 36 -38 22 -37 77 -96 106 -114 32 -20 70 -28 143 -29
59 -2 67 -7 42 -28 -24 -20 -4 -31 36 -20 23 6 40 19 47 35 6 14 15 26 19 26
5 1 22 2 39 4 47 3 88 15 96 28 11 17 10 49 -1 43 -5 -3 -25 -8 -45 -10 -34
-5 -36 -4 -31 21 6 38 18 45 69 47 56 2 70 15 68 62 -3 65 -67 117 -157 128
-42 5 -47 4 -30 -6 11 -7 26 -13 34 -14 54 -9 87 -39 96 -86 6 -27 -6 -41 -61
-73 -52 -31 -58 -27 -103 58 -42 78 -78 95 -212 102 -72 4 -77 3 -84 -18 -8
-23 -8 -61 -1 -109 5 -36 -7 -35 -45 2 -39 36 -50 82 -33 133 7 20 12 36 11
36 -1 -1 -12 -4 -25 -6z m296 -166 c20 -23 23 -74 6 -88 -15 -12 -110 -21
-127 -11 -5 2 9 12 31 22 35 16 40 22 37 47 -4 39 30 58 53 30z"/>
<path d="M6099 5028 c-7 -77 -5 -81 40 -108 25 -14 46 -31 48 -37 2 -6 -30
-24 -73 -41 -89 -34 -134 -72 -134 -110 0 -44 13 -55 59 -49 61 7 177 92 208
153 21 41 -19 110 -97 164 -19 13 -38 29 -42 35 -5 6 -8 3 -9 -7z"/>
<path d="M5179 4976 c-2 -2 -24 -6 -49 -9 -58 -8 -140 -36 -140 -49 0 -23 35
-67 64 -80 17 -8 53 -16 79 -17 63 -3 127 33 151 84 28 57 20 70 -45 72 -31 1
-58 0 -60 -1z"/>
<path d="M4748 4884 c-44 -31 -61 -72 -47 -111 17 -47 128 -121 194 -130 67
-9 93 84 47 173 -47 93 -122 119 -194 68z"/>
<path d="M4641 4673 c-28 -51 129 -189 179 -158 13 8 -33 96 -72 140 -37 40
-89 49 -107 18z"/>
<path d="M5134 4665 c-39 -17 -60 -43 -63 -82 -8 -104 120 -156 166 -68 12 23
10 78 -5 116 -14 35 -59 51 -98 34z"/>
<path d="M5217 4324 c-1 -2 -19 -4 -40 -6 -20 -1 -37 -3 -37 -5 0 -1 7 -20 16
-41 35 -88 140 -87 166 0 6 21 8 41 5 45 -7 6 -104 12 -110 7z"/>
<path d="M3199 4295 c-25 -12 -65 -35 -90 -51 -87 -57 -135 -67 -187 -40 -51
25 -72 29 -72 11 0 -48 114 -215 148 -215 6 0 12 15 14 33 2 24 8 32 22 32 15
0 22 -11 31 -50 6 -27 19 -64 28 -82 17 -31 56 -67 65 -58 5 4 4 82 -2 183 -3
58 7 61 29 9 10 -23 27 -62 38 -87 71 -165 122 -249 195 -323 31 -31 101 -69
114 -61 15 10 -41 100 -99 159 -175 176 -219 302 -164 470 20 64 20 70 -7 84
-13 7 -31 3 -63 -14z"/>
<path d="M2476 4151 c-3 -4 -7 -19 -10 -33 -4 -23 1 -29 37 -43 47 -19 198
-75 203 -75 2 0 -1 12 -7 27 -16 42 -57 91 -89 108 -33 17 -127 28 -134 16z"/>
<path d="M2444 3965 c-6 -23 -11 -26 -43 -25 -58 3 -61 2 -61 -30 0 -45 25
-85 62 -101 66 -27 198 -4 198 36 0 36 -36 95 -70 113 -63 35 -79 36 -86 7z"/>
<path d="M2119 3753 c-39 -33 -42 -76 -8 -123 30 -42 95 -89 147 -107 29 -10
34 -9 47 11 19 29 12 82 -19 152 -40 88 -109 116 -167 67z"/>
<path d="M1827 3476 c-52 -48 -41 -150 24 -228 30 -36 32 -37 59 -23 35 18 84
95 104 163 8 28 14 52 13 53 -1 1 -24 3 -52 5 -36 2 -56 10 -70 26 -28 31 -47
32 -78 4z"/>
<path d="M6521 2664 c-34 -28 -45 -55 -36 -84 7 -21 50 -47 75 -44 8 1 24 2
35 3 28 2 64 35 68 63 12 73 -81 114 -142 62z"/>
<path d="M6346 2579 c-28 -22 -34 -53 -13 -73 27 -27 90 -36 111 -16 4 4 8 25
8 46 0 62 -54 84 -106 43z"/>
<path d="M6073 2450 c-37 -22 -39 -34 -18 -105 9 -27 16 -52 16 -55 0 -3 8 -3
17 -2 61 13 100 134 54 170 -21 16 -31 15 -69 -8z"/>
<path d="M5922 2344 c-50 -22 -67 -44 -63 -78 4 -27 48 -126 57 -126 4 0 22 9
41 21 56 35 74 92 57 177 -7 36 -21 37 -92 6z"/>
<path d="M5761 2211 c-43 -41 -43 -89 2 -136 29 -32 34 -34 57 -22 38 19 55
62 41 106 -10 36 -44 81 -60 81 -5 0 -23 -13 -40 -29z"/>
<path d="M6051 2174 c-16 -7 -36 -22 -44 -34 -14 -20 -14 -26 -2 -51 18 -34
74 -55 104 -40 30 16 61 61 61 87 0 41 -64 61 -119 38z"/>
<path d="M4763 2762 c-48 -3 -52 -5 -49 -25 3 -12 5 -25 5 -29 1 -5 7 -8 15
-8 12 0 30 -39 21 -48 -2 -2 -12 1 -23 7 -33 18 -67 13 -92 -14 -43 -46 -26
-183 27 -225 33 -26 83 -26 111 0 18 18 22 18 22 5 0 -13 10 -16 53 -14 78 4
85 7 79 35 -2 13 -10 24 -18 24 -19 0 -20 4 -44 135 -31 176 -22 162 -107 157z
m-5 -165 c18 -21 27 -123 12 -132 -6 -4 -18 -1 -26 7 -15 15 -32 93 -26 121 4
20 25 22 40 4z"/>
<path d="M4458 2752 c-33 -3 -38 -7 -38 -27 0 -13 7 -28 16 -33 26 -14 59
-252 35 -252 -6 0 -11 -14 -11 -30 l0 -30 53 4 c28 2 67 5 85 5 30 1 32 3 28
28 -3 15 -12 31 -20 35 -15 9 -21 31 -31 113 -3 28 -8 57 -10 65 -2 8 -6 37
-10 65 -3 27 -8 52 -11 54 -6 6 -36 7 -86 3z"/>
<path d="M3822 2742 c-30 -3 -33 -6 -30 -30 2 -15 9 -32 17 -38 12 -9 11 -24
-3 -99 -9 -49 -18 -90 -19 -92 -5 -5 -47 158 -47 180 0 10 4 15 10 12 11 -7
25 39 15 55 -4 6 -36 10 -80 9 -63 -1 -74 -4 -78 -21 -3 -11 4 -29 19 -45 19
-21 23 -34 19 -60 -3 -18 -8 -50 -11 -70 -11 -68 -20 -66 -37 9 -25 107 -27
118 -16 118 5 0 9 16 9 35 l0 34 -75 -2 -75 -1 0 -32 c0 -19 6 -34 14 -37 15
-6 34 -63 77 -229 l22 -88 53 0 53 0 7 48 c12 83 19 91 33 36 7 -27 15 -57 18
-67 4 -15 14 -18 59 -16 30 1 57 5 58 8 2 3 7 24 10 46 8 48 34 200 41 234 2
13 11 31 20 41 11 12 13 24 7 40 -9 24 -25 28 -90 22z"/>
<path d="M1733 2684 c-9 -49 -8 -54 9 -60 11 -3 20 -4 21 -2 17 33 28 45 51
56 15 8 30 12 33 9 4 -5 -12 -135 -24 -184 -3 -14 -14 -23 -31 -25 -34 -4 -43
-48 -9 -49 12 0 30 -2 40 -4 10 -2 50 -6 88 -9 l70 -6 -3 27 c-2 16 -7 28 -13
28 -26 1 -33 16 -25 52 7 32 18 104 22 151 2 15 40 16 56 0 7 -7 12 -22 12
-35 0 -13 9 -31 19 -40 16 -13 19 -24 13 -57 -8 -57 -6 -106 6 -118 22 -22 81
-26 116 -9 32 17 33 17 28 -1 -4 -15 2 -18 34 -19 22 0 51 -3 65 -5 22 -4 28
0 33 23 5 19 3 29 -8 35 -13 7 -14 23 -10 86 3 42 6 79 6 82 1 23 -8 27 -62
28 -56 0 -60 -1 -66 -24 -4 -17 -1 -29 9 -37 22 -17 12 -104 -15 -118 -32 -17
-40 -1 -33 65 3 33 8 73 11 89 5 26 4 27 -38 28 -24 1 -47 1 -51 0 -5 -1 -6
20 -2 46 l6 49 -174 0 -174 1 -10 -53z"/>
<path d="M2893 2732 c-29 -3 -33 -7 -33 -32 0 -16 7 -30 16 -34 14 -5 15 -18
11 -84 -4 -42 -6 -96 -7 -119 0 -31 -4 -43 -15 -43 -10 0 -15 -10 -15 -30 0
-16 3 -30 8 -31 4 0 39 -3 78 -5 l72 -4 4 30 c3 20 0 30 -9 30 -15 0 -15 -2
-17 184 l-1 139 -30 1 c-16 1 -45 0 -62 -2z"/>
<path d="M2700 2715 c0 -27 -29 -73 -50 -80 -11 -3 -20 -14 -20 -23 0 -13 -3
-12 -16 6 -16 23 -67 31 -79 13 -3 -5 -18 -6 -33 -3 -23 6 -68 7 -109 3 -18
-1 -16 -50 1 -57 11 -4 14 -18 11 -47 -2 -23 -4 -52 -4 -64 -1 -13 -7 -23 -16
-23 -13 0 -33 -45 -24 -55 2 -2 40 -5 84 -7 78 -3 80 -2 83 21 2 14 -2 28 -11
32 -8 5 -13 21 -12 36 1 15 3 42 3 59 1 18 11 42 21 55 l19 24 -1 -35 c-2 -31
1 -35 25 -38 19 -2 31 3 40 17 7 12 20 21 28 21 13 0 15 -10 10 -59 -6 -66 3
-112 25 -131 8 -7 36 -14 61 -16 62 -5 94 26 94 91 0 38 -3 45 -20 45 -15 0
-20 -7 -20 -29 0 -33 -26 -63 -35 -40 -4 11 -2 80 4 132 1 4 17 7 36 7 32 0
35 2 35 30 0 28 -3 30 -36 30 l-37 0 6 50 6 50 -34 0 c-25 0 -35 -4 -35 -15z"/>
<path d="M4337 2646 c-7 -8 -19 -11 -24 -8 -9 6 -77 7 -115 3 -5 -1 -8 -14 -8
-31 0 -20 5 -30 15 -30 8 0 15 -3 16 -7 0 -5 2 -17 4 -28 12 -61 11 -97 -1
-110 -8 -7 -14 -25 -14 -40 l0 -26 85 3 85 2 -5 26 c-2 14 -12 30 -20 37 -11
7 -18 34 -22 80 -4 58 -2 71 12 83 16 13 17 13 11 -6 -10 -31 15 -58 47 -50
23 5 27 12 27 41 0 59 -57 96 -93 61z"/>
<path d="M3963 2630 c-42 -25 -60 -64 -59 -126 2 -93 56 -144 151 -144 112 0
167 122 104 226 -36 59 -136 81 -196 44z m102 -64 c20 -31 22 -113 3 -132 -19
-20 -47 -8 -55 23 -12 48 -8 114 7 123 22 14 28 12 45 -14z"/>
<path d="M3110 2632 c-55 -25 -78 -59 -84 -129 -5 -62 14 -107 56 -133 67 -42
179 -10 190 55 4 29 -38 33 -63 6 -32 -34 -79 -22 -79 21 0 16 9 18 75 18 l74
0 -5 43 c-8 53 -28 93 -55 107 -25 14 -89 21 -109 12z m74 -68 c21 -21 12 -34
-25 -34 -33 0 -40 23 -11 39 9 6 18 11 19 11 1 0 9 -7 17 -16z"/>
</g>
</svg>
